<svg width="49" height="49" viewBox="0 0 49 49" fill="none" xmlns="http://www.w3.org/2000/svg">
<path fill-rule="evenodd" clip-rule="evenodd" d="M11.065 11.065C14.6282 7.50178 19.4609 5.5 24.5 5.5C29.5391 5.5 34.3718 7.50178 37.935 11.065C41.4982 14.6282 43.5 19.4609 43.5 24.5C43.5 29.5391 41.4982 34.3718 37.935 37.935C34.3718 41.4982 29.5391 43.5 24.5 43.5C19.4609 43.5 14.6282 41.4982 11.065 37.935C7.50178 34.3718 5.5 29.5391 5.5 24.5C5.5 19.4609 7.50178 14.6282 11.065 11.065ZM31.989 29.536H27.072V43.306C26.229 43.42 25.375 43.5 24.5 43.5C23.532 43.5 22.589 43.405 21.658 43.265V29.536H16.957V24.541H21.658V21.218C21.658 15.716 24.339 13.301 28.912 13.301C31.0636 13.301 32.22 13.4574 32.7796 13.533L32.809 13.537V17.896H29.69C27.749 17.896 27.071 19.736 27.071 21.811V24.541H32.761L31.989 29.536Z" fill="#039BE5"/>
</svg>
