<svg width="48" height="48" viewBox="0 0 48 48" fill="none" xmlns="http://www.w3.org/2000/svg">
<path d="M14 6H34C38.4183 6 42 9.58172 42 14V34C42 38.4183 38.4183 42 34 42H14C9.58172 42 6 38.4183 6 34V14C6 9.58172 9.58172 6 14 6Z" stroke="black" stroke-width="4" stroke-linecap="round" stroke-linejoin="round"/>
<path d="M31.9135 22.8265C32.1603 24.491 31.876 26.191 31.101 27.6846C30.326 29.1782 29.0998 30.3893 27.5967 31.1459C26.0937 31.9024 24.3904 32.1657 22.729 31.8984C21.0677 31.6311 19.533 30.8467 18.3432 29.6568C17.1533 28.467 16.3689 26.9323 16.1016 25.271C15.8343 23.6096 16.0976 21.9063 16.8541 20.4033C17.6107 18.9002 18.8218 17.674 20.3154 16.899C21.809 16.124 23.509 15.8397 25.1735 16.0865C26.8713 16.3383 28.4432 17.1295 29.6568 18.3432C30.8705 19.5568 31.6617 21.1287 31.9135 22.8265Z" stroke="black" stroke-width="4" stroke-linecap="round" stroke-linejoin="round"/>
<path d="M35 13H35.02" stroke="black" stroke-width="4" stroke-linecap="round" stroke-linejoin="round"/>
</svg>
