<svg width="49" height="49" viewBox="0 0 49 49" fill="none" xmlns="http://www.w3.org/2000/svg">
<path fill-rule="evenodd" clip-rule="evenodd" d="M39.5 38.4C41.6 38.1 43.3 36.5 43.7 34.4C44.1 32.1 44.5 28.7 44.6 24.5C44.6 20.3 44.1 16.9 43.7 14.6C43.3 12.5 41.6 10.9 39.5 10.6C36.1 10.1 30.7 9.5 24.5 9.5C18.3 9.5 12.8 10.1 9.5 10.6C7.4 10.9 5.7 12.5 5.3 14.6C4.9 16.9 4.5 20.3 4.5 24.5C4.5 28.7 4.9 32.1 5.3 34.4C5.7 36.5 7.4 38.1 9.5 38.4C12.9 38.9 18.4 39.5 24.5 39.5C30.7 39.5 36.2 38.9 39.5 38.4ZM32.5 24.5L20.5 17.5V31.5L32.5 24.5Z" fill="#FF3D00"/>
</svg>
